<svg width="20" height="20" viewBox="0 0 20 20" fill="none" xmlns="http://www.w3.org/2000/svg">
<path d="M6.00391 13.1678H17.0234C18.2734 13.1678 19.293 12.1483 19.293 10.8983V6.26159C19.293 6.25769 19.293 6.24987 19.293 6.24597C19.293 6.23425 19.293 6.22644 19.293 6.21472C19.293 6.2069 19.293 6.19909 19.2891 6.19128C19.2891 6.18347 19.2852 6.17175 19.2852 6.16394C19.2852 6.15612 19.2813 6.14831 19.2813 6.1405C19.2773 6.13269 19.2773 6.12487 19.2734 6.11315C19.2695 6.10534 19.2695 6.09753 19.2656 6.08972C19.2617 6.0819 19.2617 6.07409 19.2578 6.06628C19.2539 6.05847 19.25 6.05065 19.2461 6.03894C19.2422 6.03112 19.2383 6.02331 19.2344 6.0194C19.2305 6.01159 19.2266 6.00378 19.2227 5.99597C19.2188 5.98815 19.2148 5.98425 19.2109 5.97644C19.207 5.96862 19.1992 5.96081 19.1953 5.953C19.1914 5.94519 19.1875 5.94128 19.1797 5.93347C19.1758 5.92565 19.168 5.92175 19.1641 5.91394C19.1602 5.90612 19.1523 5.90222 19.1484 5.8944C19.1445 5.88659 19.1367 5.88269 19.1328 5.87878C19.125 5.87097 19.1211 5.86706 19.1133 5.85925C19.1055 5.85534 19.1016 5.84753 19.0938 5.84362C19.0859 5.83972 19.0781 5.8319 19.0703 5.828C19.0625 5.82409 19.0586 5.82019 19.0508 5.81628C19.043 5.81237 19.0352 5.80847 19.0273 5.80065C19.0195 5.79675 19.0117 5.79284 19.0039 5.78894C18.9961 5.78503 18.9883 5.78112 18.9805 5.77722C18.9727 5.77331 18.9648 5.7694 18.957 5.7655C18.9492 5.76159 18.9414 5.76159 18.9336 5.75769C18.9258 5.75378 18.9141 5.74987 18.9063 5.74987C18.8984 5.74987 18.8906 5.74597 18.8867 5.74597C18.875 5.74206 18.8672 5.74206 18.8555 5.74206C18.8516 5.74206 18.8477 5.73815 18.8398 5.73815L4.84766 3.78503V1.83581C4.84766 1.81628 4.84766 1.79285 4.84375 1.77722C4.84375 1.77331 4.84375 1.76941 4.83984 1.7616C4.83984 1.74988 4.83594 1.73816 4.83594 1.72644C4.83203 1.71472 4.83203 1.70691 4.82813 1.69519C4.82813 1.68738 4.82422 1.68347 4.82422 1.67566C4.82031 1.66394 4.81641 1.65222 4.8125 1.6405C4.8125 1.6366 4.80859 1.62878 4.80859 1.62488C4.80469 1.61316 4.80078 1.60535 4.79297 1.59363C4.78906 1.58972 4.78906 1.58191 4.78516 1.578C4.78125 1.57019 4.77734 1.56238 4.76953 1.55456C4.76563 1.54675 4.76172 1.54285 4.75781 1.53503C4.75391 1.52722 4.75 1.52331 4.74609 1.5155C4.74219 1.50769 4.73438 1.49988 4.73047 1.49206C4.72656 1.48816 4.72266 1.48425 4.71875 1.48035C4.71094 1.47253 4.70313 1.46472 4.69531 1.45691C4.69141 1.453 4.6875 1.4491 4.68359 1.44519C4.67578 1.43738 4.66797 1.42956 4.65625 1.42175C4.65234 1.41785 4.64453 1.41394 4.64063 1.41003C4.63281 1.40222 4.625 1.39831 4.61719 1.3905C4.60547 1.38269 4.59375 1.37488 4.58594 1.37097C4.58203 1.36706 4.57813 1.36706 4.57422 1.36316C4.55859 1.35535 4.53906 1.34753 4.51953 1.33972L1.47656 0.0428474C1.19141 -0.0782462 0.867188 0.0545661 0.75 0.339722C0.632813 0.624878 0.761719 0.949097 1.04688 1.06628L3.73438 2.1991V4.71472V5.11706V8.17565V10.91V14.3631C3.73438 15.5155 4.59766 16.4686 5.71094 16.6131C5.50781 16.9491 5.39063 17.3436 5.39063 17.7655C5.39063 19.0038 6.39844 20.0038 7.62891 20.0038C8.85938 20.0038 9.86719 18.996 9.86719 17.7655C9.86719 17.3553 9.75781 16.9647 9.55859 16.6366H14.5469C14.3477 16.9686 14.2383 17.3553 14.2383 17.7655C14.2383 19.0038 15.2461 20.0038 16.4766 20.0038C17.707 20.0038 18.7148 18.996 18.7148 17.7655C18.7148 16.535 17.707 15.5272 16.4766 15.5272H6.00391C5.36328 15.5272 4.84375 15.0038 4.84375 14.3671V12.8631C5.18359 13.0546 5.58203 13.1678 6.00391 13.1678ZM8.76563 17.7538C8.76563 18.3788 8.25781 18.8827 7.63672 18.8827C7.01563 18.8827 6.50781 18.3749 6.50781 17.7538C6.50781 17.1327 7.01563 16.6249 7.63672 16.6249C8.25781 16.6249 8.76563 17.1327 8.76563 17.7538ZM17.6211 17.7538C17.6211 18.3788 17.1133 18.8827 16.4922 18.8827C15.8711 18.8827 15.3633 18.3749 15.3633 17.7538C15.3633 17.1327 15.8711 16.6249 16.4922 16.6249C17.1133 16.6249 17.6211 17.1327 17.6211 17.7538ZM17.0234 12.0585H6.00391C5.36328 12.0585 4.84375 11.535 4.84375 10.8983V8.16393V5.10534V4.89831L18.1836 6.73425V10.8905C18.1836 11.5389 17.6602 12.0585 17.0234 12.0585Z" fill="black"/>
</svg>
